<?xml version="1.0" standalone="no"?>
<!DOCTYPE svg PUBLIC "-//W3C//DTD SVG 20010904//EN"
 "http://www.w3.org/TR/2001/REC-SVG-20010904/DTD/svg10.dtd">
<svg version="1.0" xmlns="http://www.w3.org/2000/svg"
 width="30.000000pt" height="30.000000pt" viewBox="0 0 512.000000 512.000000"
 preserveAspectRatio="xMidYMid meet">

<g transform="translate(0.000000,512.000000) scale(0.100000,-0.100000)"
fill="blue" stroke="none">
<path d="M510 3944 c-115 -31 -208 -112 -262 -230 l-23 -49 0 -1100 0 -1100
32 -67 c41 -88 113 -160 201 -201 l67 -32 1600 0 1600 0 55 22 c131 53 226
187 237 334 6 87 -7 123 -59 160 -43 31 -113 31 -156 0 -40 -28 -57 -61 -65
-124 -8 -59 -30 -92 -69 -106 -46 -16 -3041 -14 -3087 2 -19 7 -44 25 -55 40
-21 28 -21 31 -24 1025 l-2 997 677 -676 c417 -416 695 -686 723 -702 77 -43
152 -60 254 -55 77 3 103 9 166 38 74 33 87 46 748 704 l672 671 0 -126 c0
-114 2 -129 23 -160 60 -90 181 -88 237 4 18 29 20 51 20 224 0 222 -11 273
-79 370 -46 67 -122 118 -204 140 -80 21 -3149 18 -3227 -3z m2940 -332 c0 -4
-273 -280 -607 -614 -422 -421 -619 -612 -645 -623 -47 -19 -89 -19 -136 0
-26 11 -222 200 -644 623 -335 334 -608 610 -608 614 0 5 594 8 1320 8 726 0
1320 -3 1320 -8z"/>
<path d="M4238 2929 c-39 -20 -78 -80 -78 -119 0 -47 36 -99 142 -207 l112
-113 -498 0 c-558 0 -534 3 -576 -73 -39 -69 -13 -152 61 -189 31 -16 77 -18
528 -18 l494 0 -120 -123 c-105 -107 -121 -128 -128 -165 -18 -109 105 -200
203 -148 32 18 495 482 511 513 15 30 14 99 -3 131 -21 39 -485 493 -526 514
-44 23 -76 22 -122 -3z"/>
</g>
</svg>