<?xml version="1.0" standalone="no"?>
<!DOCTYPE svg PUBLIC "-//W3C//DTD SVG 20010904//EN"
 "http://www.w3.org/TR/2001/REC-SVG-20010904/DTD/svg10.dtd">
<svg version="1.0" xmlns="http://www.w3.org/2000/svg"
 width="626.000000pt" height="626.000000pt" viewBox="0 0 626.000000 626.000000"
 preserveAspectRatio="xMidYMid meet">

<g transform="translate(0.000000,626.000000) scale(0.100000,-0.100000)"
fill="#f3f3f3" stroke="none">
<path d="M3065 6246 c-48 -21 -92 -78 -104 -136 -6 -28 -11 -136 -11 -240 0
-145 -3 -190 -12 -190 -7 0 -62 -7 -122 -15 -599 -80 -1012 -414 -1125 -910
-47 -207 -49 -382 -9 -600 42 -224 113 -365 273 -534 163 -173 394 -296 785
-420 74 -24 151 -48 170 -55 l35 -12 3 -702 c2 -615 0 -702 -13 -702 -23 0
-140 46 -192 76 -118 68 -218 166 -281 276 -25 45 -95 220 -146 367 -57 163
-93 213 -191 264 -58 31 -64 32 -185 32 -119 0 -128 -1 -183 -30 -74 -38 -144
-108 -182 -182 -26 -51 -30 -71 -33 -157 -10 -263 115 -557 333 -785 253 -265
566 -420 970 -481 44 -7 85 -14 92 -16 9 -2 13 -118 15 -476 l3 -473 25 -50
c34 -69 90 -98 177 -93 98 6 141 49 163 167 6 31 10 238 10 491 l0 438 83 11
c385 56 660 175 888 386 276 254 419 585 419 973 0 229 -35 385 -128 570 -83
165 -193 295 -349 413 -156 118 -332 193 -708 303 -88 26 -170 51 -182 56
l-23 10 0 620 c0 538 2 621 15 626 8 3 49 -11 91 -32 198 -98 295 -212 374
-439 46 -135 57 -158 106 -216 52 -63 108 -96 192 -115 248 -55 473 121 472
371 -1 295 -302 720 -625 883 -125 63 -319 119 -500 146 -60 9 -113 20 -117
24 -4 4 -8 104 -10 222 -3 208 -4 216 -28 259 -44 78 -152 113 -235 77z m-115
-1736 c0 -324 -4 -580 -9 -580 -10 0 -74 28 -171 73 -260 121 -360 262 -360
507 1 282 114 423 440 546 47 17 88 32 93 33 4 1 7 -260 7 -579z m500 -1528
c197 -77 367 -186 422 -269 51 -78 60 -96 79 -171 96 -373 -128 -720 -535
-828 -96 -26 -86 -100 -86 639 0 360 3 657 7 660 8 8 26 3 113 -31z"/>
</g>
</svg>
