<?xml version="1.0" standalone="no"?>
<!DOCTYPE svg PUBLIC "-//W3C//DTD SVG 20010904//EN"
 "http://www.w3.org/TR/2001/REC-SVG-20010904/DTD/svg10.dtd">
<svg version="1.0" xmlns="http://www.w3.org/2000/svg"
 width="512.000000pt" height="512.000000pt" viewBox="0 0 500.000000 500.000000"
 preserveAspectRatio="xMidYMid meet">

<g transform="translate(0.000000,512.000000) scale(0.100000,-0.100000)"
fill="white" stroke="none">
<path d="M1958 4785 c-214 -36 -402 -131 -562 -285 -402 -386 -439 -1007 -86
-1443 188 -232 468 -372 772 -384 310 -13 570 83 786 291 383 369 440 937 139
1380 -54 81 -186 212 -266 266 -235 158 -514 220 -783 175z m384 -447 c192
-72 339 -223 400 -408 26 -81 35 -237 19 -323 -17 -87 -89 -231 -151 -299 -64
-72 -180 -150 -262 -177 -179 -58 -328 -49 -497 31 -120 57 -232 169 -289 288
-53 112 -66 174 -65 295 2 236 131 444 344 555 110 57 171 70 314 66 98 -2
132 -8 187 -28z"/>
<path d="M4260 3719 c-44 -18 -90 -59 -112 -102 -21 -39 -23 -58 -26 -249 l-4
-208 -202 0 c-193 0 -205 -1 -247 -23 -68 -36 -103 -93 -107 -175 -4 -83 21
-138 86 -186 l44 -31 216 -5 217 -5 5 -215 c5 -201 6 -217 27 -251 89 -143
304 -128 374 26 16 35 19 68 19 243 l0 202 203 0 c228 0 256 7 314 73 92 105
59 262 -69 328 -33 17 -60 19 -243 19 l-205 0 0 200 c0 218 -6 248 -58 303
-57 60 -159 85 -232 56z"/>
<path d="M1460 2439 c-766 -98 -1359 -607 -1450 -1244 -13 -96 -13 -679 1
-729 15 -54 83 -119 142 -135 95 -27 195 13 244 97 l28 47 6 360 c5 341 6 364
28 430 137 416 558 703 1106 755 140 13 984 13 1133 0 536 -48 965 -335 1103
-738 l33 -97 6 -360 c5 -356 5 -360 28 -398 87 -140 287 -139 369 1 l28 47 3
280 c2 154 -1 330 -7 390 -58 588 -534 1076 -1220 1250 -199 50 -283 55 -924
54 -326 -1 -621 -5 -657 -10z"/>
</g>
</svg>
