<?xml version="1.0" standalone="no"?>
<!DOCTYPE svg PUBLIC "-//W3C//DTD SVG 20010904//EN"
 "http://www.w3.org/TR/2001/REC-SVG-20010904/DTD/svg10.dtd">
<svg version="1.0" xmlns="http://www.w3.org/2000/svg"
 width="512.000000pt" height="512.000000pt" viewBox="0 0 512.000000 512.000000"
 preserveAspectRatio="xMidYMid meet">

<g transform="translate(0.000000,512.000000) scale(0.100000,-0.100000)"
fill="#f3f3f3" stroke="none">
<path d="M2495 4626 c-16 -8 -410 -234 -874 -503 -741 -429 -846 -492 -862
-523 -18 -33 -19 -78 -19 -1038 0 -1081 -2 -1029 52 -1078 12 -12 407 -243
876 -514 837 -483 853 -492 900 -488 41 3 155 66 892 492 465 268 856 498 868
509 54 50 52 -2 52 1077 0 1115 4 1045 -68 1093 -20 13 -410 239 -867 502
-890 513 -876 506 -950 471z m735 -717 c363 -210 660 -385 660 -389 0 -8
-1315 -770 -1329 -770 -17 0 -1326 760 -1326 770 0 10 1302 768 1322 769 7 1
310 -171 673 -380z m-1467 -1073 l637 -368 0 -774 0 -775 -27 15 c-16 8 -316
181 -668 385 l-640 369 -3 777 -2 777 32 -19 c18 -11 320 -185 671 -387z
m2290 -1147 c-7 -7 -1258 -730 -1310 -758 l-23 -12 0 775 0 774 123 70 c67 39
367 212 667 385 l545 315 3 -771 c1 -424 -1 -774 -5 -778z"/>
</g>
</svg>
