<?xml version="1.0" standalone="no"?>
<!DOCTYPE svg PUBLIC "-//W3C//DTD SVG 20010904//EN"
 "http://www.w3.org/TR/2001/REC-SVG-20010904/DTD/svg10.dtd">
<svg version="1.0" xmlns="http://www.w3.org/2000/svg"
 width="50.000000pt" height="50.000000pt" viewBox="0 0 50.000000 50.000000"
 preserveAspectRatio="xMidYMid meet">

<g transform="translate(0.000000,50.000000) scale(0.100000,-0.100000)"
fill="#f3f3f3" stroke="none">
<path d="M175 481 c-6 -6 -32 -11 -60 -13 l-50 -3 0 -220 0 -220 185 0 185 0
0 220 0 220 -50 3 c-27 2 -54 7 -59 13 -6 5 -40 9 -76 9 -36 0 -70 -4 -75 -9z
m135 -36 c0 -24 -3 -25 -60 -25 -57 0 -60 1 -60 25 0 24 3 25 60 25 57 0 60
-1 60 -25z m-140 -5 c0 -5 -16 -10 -35 -10 l-35 0 0 -185 0 -185 150 0 150 0
0 185 0 185 -35 0 c-19 0 -35 5 -35 10 0 6 20 10 45 10 l45 0 0 -205 0 -205
-170 0 -170 0 0 205 0 205 45 0 c25 0 45 -4 45 -10z m210 -197 l0 -163 -130 0
-130 0 0 163 0 162 130 0 130 0 0 -162z"/>
<path d="M160 360 c0 -6 37 -10 90 -10 53 0 90 4 90 10 0 6 -37 10 -90 10 -53
0 -90 -4 -90 -10z"/>
<path d="M160 310 c0 -6 37 -10 90 -10 53 0 90 4 90 10 0 6 -37 10 -90 10 -53
0 -90 -4 -90 -10z"/>
<path d="M160 260 c0 -5 18 -10 40 -10 22 0 40 5 40 10 0 6 -18 10 -40 10 -22
0 -40 -4 -40 -10z"/>
<path d="M311 185 c-11 -19 -25 -35 -30 -35 -5 0 -21 14 -34 31 l-24 32 -43
-43 c-31 -31 -39 -45 -31 -53 8 -8 19 -2 41 23 l30 35 31 -35 c29 -33 31 -34
42 -15 7 11 25 32 40 47 16 15 26 32 22 38 -11 18 -22 11 -44 -25z"/>
</g>
</svg>
