<?xml version="1.0" standalone="no"?>
<!DOCTYPE svg PUBLIC "-//W3C//DTD SVG 20010904//EN"
 "http://www.w3.org/TR/2001/REC-SVG-20010904/DTD/svg10.dtd">
<svg version="1.0" xmlns="http://www.w3.org/2000/svg"
 width="25.000000pt" height="25.000000pt" viewBox="0 0 50.000000 50.000000"
 preserveAspectRatio="xMidYMid meet">

<g transform="translate(0.000000,50.000000) scale(0.100000,-0.100000)"
fill="green" stroke="none">
<path d="M195 469 c-132 -32 -200 -167 -153 -305 8 -23 7 -43 -4 -82 -9 -28
-14 -53 -11 -55 2 -3 29 2 60 10 46 12 61 12 87 2 42 -18 125 -15 168 5 82 39
131 117 131 206 0 147 -135 253 -278 219z m156 -32 c68 -36 103 -93 107 -175
3 -56 0 -74 -20 -112 -49 -90 -146 -128 -262 -100 -38 9 -62 9 -91 1 -21 -6
-40 -9 -42 -7 -2 1 3 23 10 47 11 37 11 49 -1 79 -9 22 -13 58 -10 97 7 115
91 193 208 193 40 0 70 -7 101 -23z"/>
<path d="M154 362 c-25 -17 -35 -52 -24 -86 20 -60 132 -146 192 -146 12 0 58
47 58 60 0 6 -16 18 -35 27 -33 16 -37 16 -52 1 -14 -15 -19 -15 -44 -2 -36
18 -55 50 -40 68 8 10 7 23 -4 50 -15 35 -29 43 -51 28z m39 -33 c3 -12 4 -34
1 -48 -10 -48 72 -109 103 -78 12 12 21 13 40 4 50 -23 9 -64 -53 -53 -57 11
-144 100 -144 148 0 19 3 38 7 41 14 15 41 6 46 -14z"/>
</g>
</svg>
